<svg xmlns="http://www.w3.org/2000/svg" xmlns:xlink="http://www.w3.org/1999/xlink" width="646" height="355"><g transform="translate(-401 -1288)"><path d="M550 1350c0 16.57-13.43 30-30 30s-30-13.43-30-30 13.43-30 30-30 30 13.43 30 30z" fill="#0c7cba"/><use xlink:href="#a" transform="matrix(1,0,0,1,510,1320) translate(0.6651475694444429 39.32725694444444)"/><path d="M600 1430c0 16.57-13.43 30-30 30s-30-13.43-30-30 13.43-30 30-30 30 13.43 30 30z" fill="#0c7cba"/><use xlink:href="#b" transform="matrix(1,0,0,1,560,1400) translate(0.6651475694444429 39.32725694444444)"/><path d="M500 1430c0 16.57-13.43 30-30 30s-30-13.43-30-30 13.43-30 30-30 30 13.43 30 30z" fill="#0c7cba"/><use xlink:href="#c" transform="matrix(1,0,0,1,460,1400) translate(0.6651475694444429 39.32725694444444)"/><path d="M960 1530c0 16.57-13.43 30-30 30s-30-13.43-30-30 13.43-30 30-30 30 13.43 30 30z" fill="#0c7cba"/><use xlink:href="#d" transform="matrix(1,0,0,1,920,1500) translate(0.6651475694444429 39.32725694444444)"/><path d="M505.64 1376.35l-20.14 28.06" stroke="#000" stroke-width="2" fill="none"/><path d="M506.57 1376.76l-.12.17-.8-.58zM497.6 1395.52l-12.1 8.9 4.55-14.3z"/><path d="M499.3 1395.5l-12.9 9.5-1.76-1.16 4.88-15.34zm-11.9 6.28l8.48-6.25-5.3-3.8z"/><path d="M535.9 1375.42l19.4 28.53" stroke="#000" stroke-width="2" fill="none"/><path d="M535.06 1375.98l-.06-.1.9-.46zm1.65-1.12zM555.3 1403.95l-11.85-9.2 7.66-5.2z"/><path d="M556.2 1403.47l-1.86 1-12.6-9.76 9.94-6.76zm-11.05-8.66l8.33 6.47-2.95-10.12z"/><path d="M458.72 1457.7L450 1500" stroke="#000" stroke-width="2" fill="none"/><path d="M458.72 1457.7l-.98-.2.04-.2zM457.42 1486.96L450 1500l-1.66-14.9z"/><path d="M458.97 1486.26l-7.82 13.74H449l-1.8-16.17zm-8.32 10.57l5.22-9.16-6.38-1.32z"/><path d="M479.26 1458.44L490 1500" stroke="#000" stroke-width="2" fill="none"/><path d="M480.23 1458.2l-.97.24.95-.32zM490 1500l-8.06-12.65 8.98-2.32z"/><path d="M491 1500h-2.2l-8.44-13.28 11.64-3zm-7.47-12.03l5.66 8.9.64-10.53z"/><path d="M440 1515c0 2.76 2.24 5 5 5h10c2.76 0 5-2.24 5-5v-10c0-2.76-2.24-5-5-5h-10c-2.76 0-5 2.24-5 5zM480 1515c0 2.76 2.24 5 5 5h10c2.76 0 5-2.24 5-5v-10c0-2.76-2.24-5-5-5h-10c-2.76 0-5 2.24-5 5z" stroke="#999" stroke-width=".5" fill="#999"/><path d="M918.9 1557.8L910 1600" stroke="#000" stroke-width="2" fill="none"/><path d="M918.9 1557.8l-.98-.22.05-.2zM917.48 1587l-7.48 13-1.6-14.92z"/><path d="M919.03 1586.3l-7.88 13.7H909l-1.73-16.18zm-8.36 10.53l5.26-9.14-6.38-1.35z"/><path d="M940.26 1558.1L950 1600" stroke="#000" stroke-width="2" fill="none"/><path d="M941.23 1557.88l-.97.22.95-.3zM950 1600l-7.75-12.85 9.03-2.1z"/><path d="M951 1600h-2.17l-8.14-13.5 11.7-2.73zm-7.18-12.18l5.45 9.03.9-10.5z"/><path d="M900 1615c0 2.76 2.24 5 5 5h10c2.76 0 5-2.24 5-5v-10c0-2.76-2.24-5-5-5h-10c-2.76 0-5 2.24-5 5zM940 1615c0 2.76 2.24 5 5 5h10c2.76 0 5-2.24 5-5v-10c0-2.76-2.24-5-5-5h-10c-2.76 0-5 2.24-5 5z" stroke="#999" stroke-width=".5" fill="#999"/><path d="M560.3 1458.38L550 1500" stroke="#000" stroke-width="2" fill="none"/><path d="M560.18 1458.36l.1.02-.97-.24.05-.15zM557.92 1487.26L550 1500l-1.08-14.96z"/><path d="M559.5 1486.62l-8.32 13.38H549l-1.17-16.26zm-8.72 10.24l5.57-8.96-6.33-1.56z"/><path d="M578.55 1458.67L590 1500" stroke="#000" stroke-width="2" fill="none"/><path d="M579.52 1458.4l-.97.27.96-.32zM590 1500l-8.27-12.5 8.93-2.5z"/><path d="M591 1500h-2.2l-8.67-13.1 11.6-3.22zm-7.68-11.9l5.82 8.78.46-10.53z"/><path d="M540 1515c0 2.76 2.24 5 5 5h10c2.76 0 5-2.24 5-5v-10c0-2.76-2.24-5-5-5h-10c-2.76 0-5 2.24-5 5zM580 1515c0 2.76 2.24 5 5 5h10c2.76 0 5-2.24 5-5v-10c0-2.76-2.24-5-5-5h-10c-2.76 0-5 2.24-5 5z" stroke="#999" stroke-width=".5" fill="#999"/><path d="M930 1350c0 16.57-13.43 30-30 30s-30-13.43-30-30 13.43-30 30-30 30 13.43 30 30z" fill="#0c7cba"/><use xlink:href="#a" transform="matrix(1,0,0,1,890,1320) translate(0.6651475694444429 39.32725694444444)"/><path d="M980 1430c0 16.57-13.43 30-30 30s-30-13.43-30-30 13.43-30 30-30 30 13.43 30 30z" fill="#0c7cba"/><use xlink:href="#b" transform="matrix(1,0,0,1,940,1400) translate(0.6651475694444429 39.32725694444444)"/><path d="M880 1430c0 16.57-13.43 30-30 30s-30-13.43-30-30 13.43-30 30-30 30 13.43 30 30z" fill="#0c7cba"/><use xlink:href="#c" transform="matrix(1,0,0,1,840,1400) translate(0.6651475694444429 39.32725694444444)"/><path d="M885.64 1376.35l-20.14 28.06" stroke="#000" stroke-width="2" fill="none"/><path d="M886.57 1376.76l-.12.17-.8-.58zM877.6 1395.52l-12.1 8.9 4.55-14.3z"/><path d="M879.3 1395.5l-12.9 9.5-1.76-1.16 4.88-15.34zm-11.9 6.28l8.48-6.25-5.3-3.8z"/><path d="M915.9 1375.42l19.4 28.53" stroke="#000" stroke-width="2" fill="none"/><path d="M915.06 1375.98l-.06-.1.9-.46zm1.65-1.12zM935.3 1403.95l-11.85-9.2 7.66-5.2z"/><path d="M936.2 1403.47l-1.86 1-12.6-9.76 9.94-6.76zm-11.05-8.66l8.33 6.47-2.95-10.12z"/><path d="M838.72 1457.7L830 1500" stroke="#000" stroke-width="2" fill="none"/><path d="M838.72 1457.7l-.98-.2.04-.2zM837.42 1486.96L830 1500l-1.66-14.9z"/><path d="M838.97 1486.26l-7.82 13.74H829l-1.8-16.17zm-8.32 10.57l5.22-9.16-6.38-1.32z"/><path d="M859.26 1458.44L870 1500" stroke="#000" stroke-width="2" fill="none"/><path d="M860.23 1458.2l-.97.24.95-.32zM870 1500l-8.06-12.65 8.98-2.32z"/><path d="M871 1500h-2.2l-8.44-13.28 11.64-3zm-7.47-12.03l5.66 8.9.64-10.53z"/><path d="M820 1515c0 2.76 2.24 5 5 5h10c2.76 0 5-2.24 5-5v-10c0-2.76-2.24-5-5-5h-10c-2.76 0-5 2.24-5 5zM860 1515c0 2.76 2.24 5 5 5h10c2.76 0 5-2.24 5-5v-10c0-2.76-2.24-5-5-5h-10c-2.76 0-5 2.24-5 5z" stroke="#999" stroke-width=".5" fill="#999"/><path d="M940.3 1458.38L930 1500" stroke="#000" stroke-width="2" fill="none"/><path d="M940.18 1458.36l.1.02-.97-.24.05-.15zM937.92 1487.26L930 1500l-1.08-14.96z"/><path d="M939.5 1486.62l-8.38 13.47-1.12-.1-1 .04-1.17-16.3zm-8.72 10.24l5.57-8.96-6.33-1.56z"/><path d="M958.55 1458.67L990 1500" stroke="#000" stroke-width="2" fill="none"/><path d="M957.76 1459.28l-.2-.28 1-.33zM990 1500l-12.33-8.55 7.38-5.6z"/><path d="M991.06 1500h-2.82l-12.27-8.5 9.57-7.3zm-11.7-8.58l8.68 6-3.48-9.95z"/><path d="M980 1515c0 2.76 2.24 5 5 5h10c2.76 0 5-2.24 5-5v-10c0-2.76-2.24-5-5-5h-10c-2.76 0-5 2.24-5 5z" stroke="#999" stroke-width=".5" fill="#999"/><path d="M640 1420c0-2.76 2.24-5 5-5h100c2.76 0 5-2.24 5-5v-5c0-2.76 1.58-3.42 3.54-1.46l22.92 22.92c1.96 1.96 1.96 5.12 0 7.08l-22.92 22.92c-1.96 1.96-3.54 1.3-3.54-1.46v-5c0-2.76-2.24-5-5-5H645c-2.76 0-5-2.24-5-5z" stroke="#000" stroke-width="2"/><use xlink:href="#e" transform="matrix(1,0,0,1,640,1400.25) translate(19.29296875 35.396484375)"/><use xlink:href="#f" transform="matrix(1,0,0,1,640,1400.25) translate(94.9052734375 35.396484375)"/><defs><path fill="#c1e4f7" d="M937-319V0H757v-319H103v-140l635-890h199v888h188v142H937zm-180-835L257-461h500v-693" id="g"/><use transform="matrix(0.015190972222222224,0,0,0.015190972222222224,0,0)" xlink:href="#g" id="a"/><path fill="#c1e4f7" d="M141-911c0-296 172-459 469-459 157 0 276 55 356 166s121 278 121 501c-1 324-87 567-297 677-134 70-367 56-475-22-71-52-117-126-145-226l172-27c34 111 103 176 238 176 187 0 261-138 304-298 16-65 24-141 25-227-59 121-177 199-350 199-275 0-418-184-418-460zm461 318c168 0 289-96 289-269 0-158-59-275-163-332-36-20-77-30-124-30-187 0-280 125-280 313s90 318 278 318" id="h"/><use transform="matrix(0.015190972222222224,0,0,0.015190972222222224,0,0)" xlink:href="#h" id="b"/><path fill="#c1e4f7" d="M148-1120c216-7 379-89 463-229h166v1204h353V0H157v-145h439v-1021c-79 124-254 184-448 194v-148" id="i"/><use transform="matrix(0.015190972222222224,0,0,0.015190972222222224,0,0)" xlink:href="#i" id="c"/><path fill="#c1e4f7" d="M1069-1210C890-948 720-664 634-316c-25 105-38 210-38 316H408c9-385 153-667 302-925 57-98 120-190 185-279H158v-145h911v139" id="j"/><use transform="matrix(0.015190972222222224,0,0,0.015190972222222224,0,0)" xlink:href="#j" id="d"/><path fill="#fff" d="M745-142h380V0H143v-142h422v-798H246v-142h499v940zM545-1292v-192h200v192H545" id="k"/><path fill="#fff" d="M706-1102c241 0 344 136 343 381V0H868v-695c1-168-57-273-220-268-190 6-283 138-283 336V0H185c-3-360 6-732-6-1082h170c4 54 7 126 8 185h3c63-121 164-204 346-205" id="l"/><path fill="#fff" d="M873-819c-18-114-119-146-250-146-163 0-245 50-245 151 0 151 170 148 294 185 182 54 388 94 388 320 0 240-189 325-439 329-245 4-410-69-454-268l159-31c24 133 136 168 295 165 144-2 270-31 270-171 0-164-195-160-331-202-167-52-350-87-350-299 0-218 173-315 413-313 220 2 373 77 412 260" id="m"/><path fill="#fff" d="M617-1102c355 0 481 238 477 599H322c5 222 84 388 301 388 144 0 244-59 284-166l158 45C1002-72 854 20 623 20c-342 0-490-220-490-568 0-346 151-554 484-554zm291 461c-18-192-90-328-289-328-194 0-287 128-295 328h584" id="n"/><path fill="#fff" d="M839-1102c70 0 148 7 206 17v167c-112-18-268-36-363 15-129 69-208 203-208 395V0H294c-10-367 32-789-52-1082h171c21 75 41 161 48 250h5c67-152 152-270 373-270" id="o"/><path fill="#fff" d="M682 16c-209 0-323-80-324-285v-671H190v-142h170l58-282h120v282h432v142H538v652c2 114 60 155 182 155 106 0 209-16 297-34v137C921-4 806 16 682 16" id="p"/><g id="e"><use transform="matrix(0.0087890625,0,0,0.0087890625,0,0)" xlink:href="#k"/><use transform="matrix(0.0087890625,0,0,0.0087890625,10.8017578125,0)" xlink:href="#l"/><use transform="matrix(0.0087890625,0,0,0.0087890625,21.603515625,0)" xlink:href="#m"/><use transform="matrix(0.0087890625,0,0,0.0087890625,32.4052734375,0)" xlink:href="#n"/><use transform="matrix(0.0087890625,0,0,0.0087890625,43.20703125,0)" xlink:href="#o"/><use transform="matrix(0.0087890625,0,0,0.0087890625,54.0087890625,0)" xlink:href="#p"/></g><path fill="#fff" d="M1069-1210C890-948 720-664 634-316c-25 105-38 210-38 316H408c9-385 153-667 302-925 57-98 120-190 185-279H158v-145h911v139" id="q"/><use transform="matrix(0.0087890625,0,0,0.0087890625,0,0)" xlink:href="#q" id="f"/></defs></g></svg>