<svg xmlns="http://www.w3.org/2000/svg" xmlns:xlink="http://www.w3.org/1999/xlink" width="201" height="193"><g transform="translate(-464 -1422)"><path d="M540 1570c0 16.57-13.43 30-30 30s-30-13.43-30-30 13.43-30 30-30 30 13.43 30 30z" fill="#0c7cba"/><use xlink:href="#a" transform="matrix(1,0,0,1,500,1540) translate(-14.00390625 37.994791666666664)"/><path d="M576.1 1495.3l28.43 49.06" stroke="#83bbe5" stroke-width="3" fill="none"/><path d="M574.8 1496.07l-.03-.06 1.4-.73zm2.6-1.5l-1.2.7 1.1-.86zM604.53 1544.36l-11.17-10.02 8.02-4.65z" fill="#83bbe5"/><path d="M605.9 1543.63l-2.1 1.1-.6.47-12.38-11.12 11.6-6.72zm-10-9.03l6.2 5.56-1.75-8.14z" fill="#83bbe5"/><path d="M650 1570c0 16.57-13.43 30-30 30s-30-13.43-30-30 13.43-30 30-30 30 13.43 30 30z" fill="#0c7cba"/><use xlink:href="#b" transform="matrix(1,0,0,1,610,1540) translate(-14.00390625 37.994791666666664)"/><path d="M590 1470c0 16.57-13.43 30-30 30s-30-13.43-30-30 13.43-30 30-30 30 13.43 30 30z" fill="#0c7cba"/><use xlink:href="#c" transform="matrix(1,0,0,1,550,1440) translate(-14.00390625 37.994791666666664)"/><path d="M548.04 1497.4l-7.02 14.1-18.08 31.52" stroke="#83bbe5" stroke-width="3" fill="none"/><path d="M549.4 1498.02l-.02.06-1.36-.68zM534.05 1532.95l-11.1 10.07 3.06-14.68z" fill="#83bbe5"/><path d="M536.6 1532.68l-12.17 11.02-.07-.05-2.83-1.25 3.44-16.4zm-11.25 6.13l6.17-5.57-4.46-2.56z" fill="#83bbe5"/><path d="M590 1570h-50" stroke="#83bbe5" stroke-width="3" fill="none"/><path d="M590 1570l.05 1.5H590v-3h.12zM554.27 1574.64L540 1570l14.27-4.64z" fill="#83bbe5"/><path d="M555.77 1576.7l-15.9-5.16.13-1.54-.06-1.56 15.83-5.14zm-10.92-6.7l7.92 2.57v-5.14z" fill="#83bbe5"/><defs><path fill="#c1e4f7" d="M709-1193V0H519v-1193H76v-156h1076v156H709" id="d"/><path fill="#c1e4f7" d="M615-1102c343 0 484 203 482 560-1 347-147 562-488 562-336 0-475-219-479-562-4-349 156-560 485-560zm-8 989c240 0 301-180 301-429 0-245-55-427-290-427-236 0-299 181-299 427 0 243 61 429 288 429" id="e"/><path fill="#c1e4f7" d="M904-1102c199 0 220 177 220 381V0H956v-686c-3-114 0-215-60-264-70-33-125-4-158 71-26 56-39 140-39 252V0H531v-686c-3-114-1-215-61-264-78-41-136 24-157 84-24 69-39 159-39 259V0H105c-3-360 6-732-6-1082h149c6 50 3 123 8 175 36-100 83-195 216-195 135 0 166 79 196 196 42-105 93-196 236-196" id="f"/><g id="a"><use transform="matrix(0.013020833333333334,0,0,0.013020833333333334,0,0)" xlink:href="#d"/><use transform="matrix(0.013020833333333334,0,0,0.013020833333333334,16.002604166666668,0)" xlink:href="#e"/><use transform="matrix(0.013020833333333334,0,0,0.013020833333333334,32.005208333333336,0)" xlink:href="#f"/></g><path fill="#c1e4f7" d="M614-1226c-167 1-283 53-283 213 0 183 186 193 334 234 230 63 463 120 463 409 0 286-219 387-518 390C309 23 131-98 79-338l185-37c34 165 149 248 351 246 184-2 324-58 324-238 0-203-207-221-372-266-210-57-422-111-422-377 0-267 201-356 470-360 279-5 430 101 480 324l-188 33c-28-141-121-215-293-213" id="g"/><path fill="#c1e4f7" d="M528 20c-247 0-343-132-343-381v-721h180v686c-4 177 45 284 224 277 194-8 279-136 279-336v-627h181c3 360-6 732 6 1082H885c-4-54-7-126-8-185h-3C809-64 714 20 528 20" id="h"/><path fill="#c1e4f7" d="M617-1102c355 0 481 238 477 599H322c5 222 84 388 301 388 144 0 244-59 284-166l158 45C1002-72 854 20 623 20c-342 0-490-220-490-568 0-346 151-554 484-554zm291 461c-18-192-90-328-289-328-194 0-287 128-295 328h584" id="i"/><g id="b"><use transform="matrix(0.013020833333333334,0,0,0.013020833333333334,0,0)" xlink:href="#g"/><use transform="matrix(0.013020833333333334,0,0,0.013020833333333334,16.002604166666668,0)" xlink:href="#h"/><use transform="matrix(0.013020833333333334,0,0,0.013020833333333334,32.005208333333336,0)" xlink:href="#i"/></g><path fill="#c1e4f7" d="M802-711c201 25 350 118 350 331C1152-95 921 0 634 0H162v-1349c401 9 908-74 908 327 0 184-111 275-268 311zm-224-69c174-2 300-51 300-218 0-163-124-198-302-198H353v416h225zM353-153c281-2 612 44 606-244-5-271-329-233-606-234v478" id="j"/><path fill="#c1e4f7" d="M365-904c58-129 161-200 334-200 130 0 228 46 293 138s98 233 98 420c0 189-34 331-102 425S824 20 698 20c-170 0-275-64-336-184 0 55-3 116-9 164H179c5-68 6-147 6-223v-1261h180c-2 193 4 394-4 580h4zm283 791c221 0 256-197 256-427 0-229-34-425-254-425-236 0-285 195-285 441 0 237 53 411 283 411" id="k"/><g id="c"><use transform="matrix(0.013020833333333334,0,0,0.013020833333333334,0,0)" xlink:href="#j"/><use transform="matrix(0.013020833333333334,0,0,0.013020833333333334,16.002604166666668,0)" xlink:href="#e"/><use transform="matrix(0.013020833333333334,0,0,0.013020833333333334,32.005208333333336,0)" xlink:href="#k"/></g></defs></g></svg>