<svg xmlns="http://www.w3.org/2000/svg" xmlns:xlink="http://www.w3.org/1999/xlink" width="245" height="326"><g transform="translate(-485 -1208)"><path d="M560 1330c0 16.57-13.43 30-30 30s-30-13.43-30-30 13.43-30 30-30 30 13.43 30 30z" fill="#0c7cba"/><use xlink:href="#a" transform="matrix(1,0,0,1,520,1300) translate(-6.002604166666668 33.99739583333333)"/><path d="M640 1250c0 16.57-13.43 30-30 30s-30-13.43-30-30 13.43-30 30-30 30 13.43 30 30z" fill="#0c7cba"/><use xlink:href="#b" transform="matrix(1,0,0,1,600,1220) translate(-10.003255208333336 33.99739583333333)"/><path d="M640 1410c0 16.57-13.43 30-30 30s-30-13.43-30-30 13.43-30 30-30 30 13.43 30 30z" fill="#0c7cba"/><use xlink:href="#c" transform="matrix(1,0,0,1,600,1380) translate(-6.002604166666668 33.99739583333333)"/><path d="M720 1330c0 16.57-13.43 30-30 30s-30-13.43-30-30 13.43-30 30-30 30 13.43 30 30z" fill="#0c7cba"/><use xlink:href="#d" transform="matrix(1,0,0,1,680,1300) translate(-14.003906250000004 33.99739583333333)"/><path d="M560 1490c0 16.57-13.43 30-30 30s-30-13.43-30-30 13.43-30 30-30 30 13.43 30 30z" fill="#0c7cba"/><use xlink:href="#e" transform="matrix(1,0,0,1,520,1460) translate(-6.002604166666668 33.99739583333333)"/><path d="M720 1490c0 16.57-13.43 30-30 30s-30-13.43-30-30 13.43-30 30-30 30 13.43 30 30z" fill="#0c7cba"/><use xlink:href="#f" transform="matrix(1,0,0,1,680,1460) translate(-18.00455729166667 33.99739583333333)"/><path d="M550.9 1468.6l37.74-37.74" stroke="#83bbe5" stroke-width="3" fill="none"/><path d="M551.2 1468.9l-1.4-1.32.04-.05z" fill="#83bbe5"/><path d="M588.64 1430.86l-6.8 13.36-6.57-6.55z" stroke="#83bbe5" stroke-width="3" fill="#83bbe5"/><path d="M530 1460v-100" stroke="#83bbe5" stroke-width="3" fill="none"/><path d="M531.5 1460.12l-1.5-.12-1.5.05v-.05h3zM534.64 1374.27h-9.28L530 1360z" fill="#83bbe5"/><path d="M530 1360l1.56-.06 5.14 15.83h-13.4l5.16-15.9zm-2.57 12.77h5.14l-2.57-7.92z" fill="#83bbe5"/><path d="M549.9 1307.65l41.2-34.6" stroke="#83bbe5" stroke-width="3" fill="none"/><path d="M550 1307.78l-1.23-1.15.16-.13z" fill="#83bbe5"/><path d="M591.1 1273.06l-7.95 12.73-5.97-7.1z" stroke="#83bbe5" stroke-width="3" fill="#83bbe5"/><path d="M668.05 1309.56l-36.1-39.12" stroke="#83bbe5" stroke-width="3" fill="none"/><path d="M667.1 1310.73l-.16-.16 2.13-1.96zM645.04 1277.8l-6.82 6.27-6.27-13.63z" fill="#83bbe5"/><path d="M647.57 1277.5l-9.85 9.07-6.92-15.04 2.1-2.27zm-8.85 4.07l3.78-3.5-7.25-4.06z" fill="#83bbe5"/><path d="M589.7 1388.18l-37.45-38.15M589.7 1388.18l2.1 2.14" stroke="#83bbe5" stroke-width="3" fill="none"/><path d="M565.55 1356.97l-6.6 6.5-6.7-13.44z" fill="#83bbe5"/><path d="M568.08 1356.6l-9.56 9.38-7.38-14.82 2.14-2.3zm-8.72 4.34l3.67-3.6-7.38-3.84z" fill="#83bbe5"/><path d="M668.05 1469.56l-37.78-37.7" stroke="#83bbe5" stroke-width="3" fill="none"/><path d="M669.14 1468.53l-2.04 2.2-.1-.1 2.1-2.14z" fill="#83bbe5"/><path d="M630.27 1431.85l13.37 6.8-6.55 6.56z" stroke="#83bbe5" stroke-width="3" fill="#83bbe5"/><path d="M690 1460v-100" stroke="#83bbe5" stroke-width="3" fill="none"/><path d="M691.5 1460.12l-1.5-.12-1.5.05v-.05h3zM694.64 1374.27h-9.28L690 1360z" fill="#83bbe5"/><path d="M690 1360l1.56-.06 5.14 15.83h-13.4l5.16-15.9zm-2.57 12.77h5.14l-2.57-7.92z" fill="#83bbe5"/><defs><path fill="#c1e4f7" d="M237 0v-1349h191v1193h672V0H237" id="g"/><path fill="#c1e4f7" d="M745-142h380V0H143v-142h422v-798H246v-142h499v940zM545-1292v-192h200v192H545" id="h"/><path fill="#c1e4f7" d="M873-819c-18-114-119-146-250-146-163 0-245 50-245 151 0 151 170 148 294 185 182 54 388 94 388 320 0 240-189 325-439 329-245 4-410-69-454-268l159-31c24 133 136 168 295 165 144-2 270-31 270-171 0-164-195-160-331-202-167-52-350-87-350-299 0-218 173-315 413-313 220 2 373 77 412 260" id="i"/><path fill="#c1e4f7" d="M682 16c-209 0-323-80-324-285v-671H190v-142h170l58-282h120v282h432v142H538v652c2 114 60 155 182 155 106 0 209-16 297-34v137C921-4 806 16 682 16" id="j"/><g id="a"><use transform="matrix(0.006510416666666667,0,0,0.006510416666666667,0,0)" xlink:href="#g"/><use transform="matrix(0.006510416666666667,0,0,0.006510416666666667,8.001302083333334,0)" xlink:href="#h"/><use transform="matrix(0.006510416666666667,0,0,0.006510416666666667,16.002604166666668,0)" xlink:href="#i"/><use transform="matrix(0.006510416666666667,0,0,0.006510416666666667,24.00390625,0)" xlink:href="#j"/></g><path fill="#c1e4f7" d="M285-1169c8 382 2 780 4 1169H129v-1349h237c86 239 188 461 253 720 69-258 169-481 255-720h225V0H937c2-390-5-788 6-1169-75 255-170 488-259 729H547c-90-240-185-475-262-729" id="k"/><path fill="#c1e4f7" d="M1000-272c3 95 12 159 101 161 21 0 41-3 59-7V-6c-44 10-86 16-139 16-141 2-191-84-197-217h-6C748-76 648 20 446 20c-207 0-318-120-318-322 0-266 194-348 454-354l236-4c12-191-40-305-222-305-140 0-220 47-232 172l-188-17c33-204 181-292 423-292 255 0 401 118 401 364v466zm-683-27c0 109 63 184 175 182 166-3 259-96 306-217 24-65 20-120 20-200-232 7-501-28-501 235" id="l"/><path fill="#c1e4f7" d="M168 279c222 39 310-114 368-290L66-1082h192c120 299 249 590 362 896 115-301 235-597 351-896h190L705 0c-65 164-130 320-275 396-67 36-177 35-262 18V279" id="m"/><path fill="#c1e4f7" d="M365-904c58-129 161-200 334-200 130 0 228 46 293 138s98 233 98 420c0 189-34 331-102 425S824 20 698 20c-170 0-275-64-336-184 0 55-3 116-9 164H179c5-68 6-147 6-223v-1261h180c-2 193 4 394-4 580h4zm283 791c221 0 256-197 256-427 0-229-34-425-254-425-236 0-285 195-285 441 0 237 53 411 283 411" id="n"/><path fill="#c1e4f7" d="M617-1102c355 0 481 238 477 599H322c5 222 84 388 301 388 144 0 244-59 284-166l158 45C1002-72 854 20 623 20c-342 0-490-220-490-568 0-346 151-554 484-554zm291 461c-18-192-90-328-289-328-194 0-287 128-295 328h584" id="o"/><g id="b"><use transform="matrix(0.006510416666666667,0,0,0.006510416666666667,0,0)" xlink:href="#k"/><use transform="matrix(0.006510416666666667,0,0,0.006510416666666667,8.001302083333334,0)" xlink:href="#l"/><use transform="matrix(0.006510416666666667,0,0,0.006510416666666667,16.002604166666668,0)" xlink:href="#m"/><use transform="matrix(0.006510416666666667,0,0,0.006510416666666667,24.00390625,0)" xlink:href="#n"/><use transform="matrix(0.006510416666666667,0,0,0.006510416666666667,32.005208333333336,0)" xlink:href="#o"/></g><path fill="#c1e4f7" d="M473-1349c438-1 655 221 652 661C1122-268 945-8 532 0H162v-1349h311zm42 1193c308-4 416-205 418-532 2-330-131-509-459-505H353v1037h162" id="p"/><path fill="#c1e4f7" d="M631 20c-350 0-501-215-501-562 0-355 162-560 502-560 250 0 399 118 446 323l-192 14c-23-124-109-196-262-196-242 0-305 171-305 415 1 245 61 427 304 427 151 0 248-77 267-215l190 12C1039-107 883 20 631 20" id="q"/><g id="c"><use transform="matrix(0.006510416666666667,0,0,0.006510416666666667,0,0)" xlink:href="#p"/><use transform="matrix(0.006510416666666667,0,0,0.006510416666666667,8.001302083333334,0)" xlink:href="#h"/><use transform="matrix(0.006510416666666667,0,0,0.006510416666666667,16.002604166666668,0)" xlink:href="#q"/><use transform="matrix(0.006510416666666667,0,0,0.006510416666666667,24.00390625,0)" xlink:href="#j"/></g><path fill="#c1e4f7" d="M1121-976c0 225-142 341-344 379L1177 0H957L591-575H353V0H162v-1349h482c281 3 477 100 477 373zM633-726c181-1 296-73 296-247 0-149-101-223-304-223H353v470h280" id="r"/><path fill="#c1e4f7" d="M528 20c-247 0-343-132-343-381v-721h180v686c-4 177 45 284 224 277 194-8 279-136 279-336v-627h181c3 360-6 732 6 1082H885c-4-54-7-126-8-185h-3C809-64 714 20 528 20" id="s"/><path fill="#c1e4f7" d="M736-142h380V0H134v-142h422v-1200H267v-142h469v1342" id="t"/><g id="d"><use transform="matrix(0.006510416666666667,0,0,0.006510416666666667,0,0)" xlink:href="#r"/><use transform="matrix(0.006510416666666667,0,0,0.006510416666666667,8.001302083333334,0)" xlink:href="#o"/><use transform="matrix(0.006510416666666667,0,0,0.006510416666666667,16.002604166666668,0)" xlink:href="#i"/><use transform="matrix(0.006510416666666667,0,0,0.006510416666666667,24.00390625,0)" xlink:href="#s"/><use transform="matrix(0.006510416666666667,0,0,0.006510416666666667,32.005208333333336,0)" xlink:href="#t"/><use transform="matrix(0.006510416666666667,0,0,0.006510416666666667,40.00651041666667,0)" xlink:href="#j"/></g><path fill="#c1e4f7" d="M875 0v-623H353V0H162v-1349h191v566h522v-566h191V0H875" id="u"/><path fill="#c1e4f7" d="M615-1102c343 0 484 203 482 560-1 347-147 562-488 562-336 0-475-219-479-562-4-349 156-560 485-560zm-8 989c240 0 301-180 301-429 0-245-55-427-290-427-236 0-299 181-299 427 0 243 61 429 288 429" id="v"/><path fill="#c1e4f7" d="M904-1102c199 0 220 177 220 381V0H956v-686c-3-114 0-215-60-264-70-33-125-4-158 71-26 56-39 140-39 252V0H531v-686c-3-114-1-215-61-264-78-41-136 24-157 84-24 69-39 159-39 259V0H105c-3-360 6-732-6-1082h149c6 50 3 123 8 175 36-100 83-195 216-195 135 0 166 79 196 196 42-105 93-196 236-196" id="w"/><g id="e"><use transform="matrix(0.006510416666666667,0,0,0.006510416666666667,0,0)" xlink:href="#u"/><use transform="matrix(0.006510416666666667,0,0,0.006510416666666667,8.001302083333334,0)" xlink:href="#v"/><use transform="matrix(0.006510416666666667,0,0,0.006510416666666667,16.002604166666668,0)" xlink:href="#w"/><use transform="matrix(0.006510416666666667,0,0,0.006510416666666667,24.00390625,0)" xlink:href="#o"/></g><path fill="#c1e4f7" d="M622-1349c296 4 497 117 497 404 0 282-193 424-485 431H353V0H162v-1349h460zm-15 684c195-3 320-88 320-277 0-184-129-255-328-254H353v531h254" id="x"/><path fill="#c1e4f7" d="M839-1102c70 0 148 7 206 17v167c-112-18-268-36-363 15-129 69-208 203-208 395V0H294c-10-367 32-789-52-1082h171c21 75 41 161 48 250h5c67-152 152-270 373-270" id="y"/><path fill="#c1e4f7" d="M839-1335c-182-6-269 67-259 253h491v142H580V0H400v-940H138v-142h262c-15-293 132-408 418-402 94 2 200 7 281 21v145c-75-10-177-14-260-17" id="z"/><g id="f"><use transform="matrix(0.006510416666666667,0,0,0.006510416666666667,0,0)" xlink:href="#x"/><use transform="matrix(0.006510416666666667,0,0,0.006510416666666667,8.001302083333334,0)" xlink:href="#y"/><use transform="matrix(0.006510416666666667,0,0,0.006510416666666667,16.002604166666668,0)" xlink:href="#v"/><use transform="matrix(0.006510416666666667,0,0,0.006510416666666667,24.00390625,0)" xlink:href="#z"/><use transform="matrix(0.006510416666666667,0,0,0.006510416666666667,32.005208333333336,0)" xlink:href="#h"/><use transform="matrix(0.006510416666666667,0,0,0.006510416666666667,40.00651041666667,0)" xlink:href="#t"/><use transform="matrix(0.006510416666666667,0,0,0.006510416666666667,48.00781250000001,0)" xlink:href="#o"/></g></defs></g></svg>