<svg xmlns="http://www.w3.org/2000/svg" xmlns:xlink="http://www.w3.org/1999/xlink" width="519" height="229"><g transform="translate(-451 -1400)"><path d="M540 1570c0 16.57-13.43 30-30 30s-30-13.43-30-30 13.43-30 30-30 30 13.43 30 30z" fill="#0c7cba"/><use xlink:href="#a" transform="matrix(1,0,0,1,500,1540) translate(0.6651475694444429 39.32725694444444)"/><path d="M650 1450h50" stroke="#83bbe5" stroke-width="3" fill="none"/><path d="M650 1451.5h-.12l.12-1.5-.05-1.5h.05zM700 1450l-14.27 4.64v-9.28z" fill="#83bbe5"/><path d="M700.13 1448.46L700 1450l.06 1.56-15.83 5.14v-13.4zm-12.9 4.1l7.92-2.56-7.92-2.57z" fill="#83bbe5"/><path d="M620 1480v60" stroke="#83bbe5" stroke-width="3" fill="none"/><path d="M620 1480l1.5-.05v.05h-3v-.12zM620 1540l-4.64-14.27h9.28z" fill="#83bbe5"/><path d="M621.54 1540.13L620 1540l-1.56.06-5.14-15.83h13.4zm-4.1-12.9l2.56 7.92 2.57-7.92z" fill="#83bbe5"/><path d="M730 1540v-60" stroke="#83bbe5" stroke-width="3" fill="none"/><path d="M731.5 1540.12l-1.5-.12-1.5.05v-.05h3zM734.64 1494.27h-9.28L730 1480z" fill="#83bbe5"/><path d="M730 1480l1.56-.06 5.14 15.83h-13.4l5.16-15.9zm-2.57 12.77h5.14l-2.57-7.92z" fill="#83bbe5"/><path d="M760 1450l17.83.65 10 1.22 6.8 1.43 5 1.48 3.8 1.5 3 1.48 2.45 1.46 2.02 1.45 1.7 1.45 1.43 1.46 1.24 1.48 1.07 1.52.92 1.58.8 1.65.66 1.77.54 1.9.4 2.06.26 2.3.08 2.17" stroke="#83bbe5" stroke-width="3" fill="none"/><path d="M760.06 1448.5l-.1 3h-.08l.12-1.5-.05-1.5zM820 1480l-8.48-12.37 8.9-2.62z" fill="#83bbe5"/><path d="M821.5 1480.12l-1.5-.12-1.78.06-9.1-13.28 12.84-3.8zm-7.58-11.64l4.7 6.86.23-8.3z" fill="#83bbe5"/><path d="M820 1540l-.1 2.54-.3 2.26-.42 2.04-.56 1.87-.68 1.74-.8 1.64-.95 1.57-1.1 1.5-1.27 1.5-1.48 1.45-1.73 1.44-2.08 1.46-2.5 1.47-3.13 1.48-3.94 1.5-5.2 1.47-7.2 1.4-10.7 1.18-15.86.5" stroke="#83bbe5" stroke-width="3" fill="none"/><path d="M821.44 1540.43L820 1540l1.58-.06zM774.4 1574.2L760 1570l14.1-5.08z" fill="#83bbe5"/><path d="M775.97 1576.2l-16.1-4.67.13-1.53-.06-1.57 15.6-5.62zm-11.12-6.35l8 2.32-.17-5.14z" fill="#83bbe5"/><path d="M760 1450c0 16.57-13.43 30-30 30s-30-13.43-30-30 13.43-30 30-30 30 13.43 30 30z" fill="#0c7cba"/><use xlink:href="#b" transform="matrix(1,0,0,1,720,1420) translate(0.6651475694444429 39.32725694444444)"/><path d="M850 1510c0 16.57-13.43 30-30 30s-30-13.43-30-30 13.43-30 30-30 30 13.43 30 30z" fill="#0c7cba"/><use xlink:href="#c" transform="matrix(1,0,0,1,810,1480) translate(0.6651475694444429 39.32725694444444)"/><path d="M760 1570c0 16.57-13.43 30-30 30s-30-13.43-30-30 13.43-30 30-30 30 13.43 30 30z" fill="#0c7cba"/><use xlink:href="#d" transform="matrix(1,0,0,1,720,1540) translate(0.6651475694444429 39.32725694444444)"/><path d="M650 1570c0 16.57-13.43 30-30 30s-30-13.43-30-30 13.43-30 30-30 30 13.43 30 30z" fill="#0c7cba"/><use xlink:href="#e" transform="matrix(1,0,0,1,610,1540) translate(0.6651475694444429 39.32725694444444)"/><path d="M650 1450c0 16.57-13.43 30-30 30s-30-13.43-30-30 13.43-30 30-30 30 13.43 30 30z" fill="#0c7cba"/><use xlink:href="#f" transform="matrix(1,0,0,1,610,1420) translate(0.6651475694444429 39.32725694444444)"/><path d="M950 1510c0 16.57-13.43 30-30 30s-30-13.43-30-30 13.43-30 30-30 30 13.43 30 30z" fill="#0c7cba"/><use xlink:href="#g" transform="matrix(1,0,0,1,910,1480) translate(0.6651475694444429 39.32725694444444)"/><path d="M850 1510h40" stroke="#83bbe5" stroke-width="3" fill="none"/><path d="M850 1511.5h-.12l.12-1.5-.05-1.5h.05zM890 1510l-14.27 4.64v-9.28z" fill="#83bbe5"/><path d="M890.13 1508.46L890 1510l.06 1.56-15.83 5.14v-13.4zm-12.9 4.1l7.92-2.56-7.92-2.57z" fill="#83bbe5"/><path d="M591.42 1561.07l-16.1-3.52-7.75-.88-6.24-.1-6.05.47-6.76 1.2-8.84 2.45-1.14.37" stroke="#83bbe5" stroke-width="3" fill="none"/><path d="M591.9 1559.64l-.26.54-.23.9.34-1.48zM553.5 1562.1l-14.96-1.03 12.72-7.96z" fill="#83bbe5"/><path d="M555.47 1563.74l-16.4-1.13-1-3 14.14-8.86zm-12.22-3.85l8.3.56-1.25-5z" fill="#83bbe5"/><path d="M536.9 1583.12l9.56 3.74 6.72 1.96 5.45 1.06 4.78.5 4.44.06 4.3-.32 4.37-.72 4.6-1.2 5.05-1.8 5.84-2.7 1.1-.58" stroke="#83bbe5" stroke-width="3" fill="none"/><path d="M536.4 1584.53l-.14-.05.1-.12.54-1.25zM581.6 1592.73l-3.46-8.6 14.97-1z" fill="#83bbe5"/><path d="M592.4 1581.8l1.43 2.67-12.86 10.74-5-12.43 16.4-1.1zm-12.1 3.7l1.92 4.76 6.4-5.33z" fill="#83bbe5"/><defs><path fill="#c1e4f7" d="M1060-1016c0 191-128 285-295 323v4c154 18 262 91 313 209 14 35 21 72 21 110 0 277-194 390-478 390-292 0-457-129-493-382l186-17c24 161 121 250 307 250 172 1 298-80 291-247-8-208-220-239-446-233v-156c217 9 409-34 409-232 0-152-102-225-264-225-159 0-264 88-278 233l-181-14c33-239 196-367 461-367 264 0 447 102 447 354" id="h"/><use transform="matrix(0.015190972222222224,0,0,0.015190972222222224,0,0)" xlink:href="#h" id="a"/><path fill="#c1e4f7" d="M937-319V0H757v-319H103v-140l635-890h199v888h188v142H937zm-180-835L257-461h500v-693" id="i"/><use transform="matrix(0.015190972222222224,0,0,0.015190972222222224,0,0)" xlink:href="#i" id="b"/><path fill="#c1e4f7" d="M672-881c271 0 424 163 424 435 0 291-160 466-455 466-367 0-490-287-490-662 0-324 85-568 293-680 129-70 351-59 460 16 73 50 125 123 153 223l-172 31c-31-108-107-172-232-172-259 0-316 252-323 529 59-113 178-186 342-186zm-37 756c186 0 278-124 278-313s-96-304-284-304c-163 0-281 93-281 261 0 157 65 270 168 327 35 19 75 29 119 29" id="j"/><use transform="matrix(0.015190972222222224,0,0,0.015190972222222224,0,0)" xlink:href="#j" id="c"/><path fill="#c1e4f7" d="M353-779c69-51 166-92 291-90 218 3 357 100 423 255 21 52 32 109 32 170 0 305-189 464-500 464-268 0-424-116-471-335l182-21c35 130 124 212 293 209 198-4 309-114 309-313 0-182-118-282-305-282-120 0-198 45-262 101H169l47-728h801v145H382" id="k"/><use transform="matrix(0.015190972222222224,0,0,0.015190972222222224,0,0)" xlink:href="#k" id="d"/><path fill="#c1e4f7" d="M611-1370c266 0 451 106 451 368 0 147-77 243-154 327-132 144-316 255-451 395-42 44-75 87-96 134h723V0H144v-117c124-264 387-411 582-603 73-72 151-147 151-271 0-161-104-231-266-231-163 0-249 90-268 238l-184-17c35-233 185-369 452-369" id="l"/><use transform="matrix(0.015190972222222224,0,0,0.015190972222222224,0,0)" xlink:href="#l" id="e"/><path fill="#c1e4f7" d="M148-1120c216-7 379-89 463-229h166v1204h353V0H157v-145h439v-1021c-79 124-254 184-448 194v-148" id="m"/><use transform="matrix(0.015190972222222224,0,0,0.015190972222222224,0,0)" xlink:href="#m" id="f"/><path fill="#c1e4f7" d="M1069-1210C890-948 720-664 634-316c-25 105-38 210-38 316H408c9-385 153-667 302-925 57-98 120-190 185-279H158v-145h911v139" id="n"/><use transform="matrix(0.015190972222222224,0,0,0.015190972222222224,0,0)" xlink:href="#n" id="g"/></defs></g></svg>