<svg xmlns="http://www.w3.org/2000/svg" xmlns:xlink="http://www.w3.org/1999/xlink" width="470" height="104"><g transform="translate(-453 -1615)"><path d="M530 1670c0 16.57-13.43 30-30 30s-30-13.43-30-30 13.43-30 30-30 30 13.43 30 30z" fill="#0c7cba"/><use xlink:href="#a" transform="matrix(1,0,0,1,490,1640) translate(1.998697916666666 37.994791666666664)"/><path d="M760 1570c0 16.57-13.43 30-30 30s-30-13.43-30-30 13.43-30 30-30 30 13.43 30 30z" fill="#0c7cba"/><use xlink:href="#b" transform="matrix(1,0,0,1,720,1540) translate(0.6651475694444429 39.32725694444444)"/><path d="M630 1670c0 16.57-13.43 30-30 30s-30-13.43-30-30 13.43-30 30-30 30 13.43 30 30z" fill="#0c7cba"/><use xlink:href="#c" transform="matrix(1,0,0,1,590,1640) translate(1.998697916666666 37.994791666666664)"/><path d="M810 1670c0 16.57-13.43 30-30 30s-30-13.43-30-30 13.43-30 30-30 30 13.43 30 30z" fill="#0c7cba"/><use xlink:href="#a" transform="matrix(1,0,0,1,770,1640) translate(1.998697916666666 37.994791666666664)"/><path d="M910 1670c0 16.57-13.43 30-30 30s-30-13.43-30-30 13.43-30 30-30 30 13.43 30 30z" fill="#0c7cba"/><use xlink:href="#c" transform="matrix(1,0,0,1,870,1640) translate(1.998697916666666 37.994791666666664)"/><path d="M530 1670h40" stroke="#83bbe5" stroke-width="6" fill="none"/><path d="M530 1673h-.25l.25-3-.08-2.15-.13-.85h.2zM570 1670l.08 2.15.13.85h-.2v-6h.25z" fill="#83bbe5"/><path d="M660 1645c0-2.76 2.24-5 5-5h50c2.76 0 5 2.24 5 5v60c0 2.76-2.24 5-5 5h-50c-2.76 0-5-2.24-5-5z" fill="none"/><use xlink:href="#d" transform="matrix(1,0,0,1,660,1640) translate(10.555555555555554 53.33333333333334)"/><path d="M809.14 1662.87l8.83-2.44 6.47-.97 6.07-.15 7.4.73 13.06 2.84" stroke="#83bbe5" stroke-width="3" fill="none"/><path d="M809.47 1664.33l-.1.02-.2-1.37zm-.33-1.46l-.47-1.43.14-.03zM850.96 1662.87l-14.9 1.7 1.85-9.1z" fill="#83bbe5"/><path d="M851.34 1661.36l-.78 3.06-16.4 1.86 2.7-13.13zm-13.4 1.48l8.26-.94-7.24-4.1z" fill="#83bbe5"/><path d="M852.25 1681.3l-10.43 2.95-6.55 1.04-5.37.22-5.1-.37-5.44-1.03-6.68-2.08-4.5-1.83" stroke="#83bbe5" stroke-width="3" fill="none"/><path d="M852.4 1681.8l.5.9-.3.07-.36-1.46zM820.4 1688.92l-12.22-8.7 15-.14z" fill="#83bbe5"/><path d="M821.2 1691.34l-13.64-9.73.8-1.78.28-1.1 16.6-.16zm-8.4-9.67l6.8 4.83 1.53-4.9z" fill="#83bbe5"/><defs><path fill="#c1e4f7" d="M1034 0L896-382H333L196 0H0l510-1349h217L1228 0h-194zM847-531c-77-225-157-447-231-674-69 231-154 451-232 674h463" id="e"/><use transform="matrix(0.013020833333333334,0,0,0.013020833333333334,0,0)" xlink:href="#e" id="a"/><path fill="#c1e4f7" d="M353-779c69-51 166-92 291-90 218 3 357 100 423 255 21 52 32 109 32 170 0 305-189 464-500 464-268 0-424-116-471-335l182-21c35 130 124 212 293 209 198-4 309-114 309-313 0-182-118-282-305-282-120 0-198 45-262 101H169l47-728h801v145H382" id="f"/><use transform="matrix(0.015190972222222224,0,0,0.015190972222222224,0,0)" xlink:href="#f" id="b"/><path fill="#c1e4f7" d="M802-711c201 25 350 118 350 331C1152-95 921 0 634 0H162v-1349c401 9 908-74 908 327 0 184-111 275-268 311zm-224-69c174-2 300-51 300-218 0-163-124-198-302-198H353v416h225zM353-153c281-2 612 44 606-244-5-271-329-233-606-234v478" id="g"/><use transform="matrix(0.013020833333333334,0,0,0.013020833333333334,0,0)" xlink:href="#g" id="c"/><path d="M18-150v-26h174v26H18zm0 90v-26h174v26H18" id="h"/><use transform="matrix(0.1851851851851852,0,0,0.1851851851851852,0,0)" xlink:href="#h" id="d"/></defs></g></svg>