<svg xmlns="http://www.w3.org/2000/svg" xmlns:xlink="http://www.w3.org/1999/xlink" width="199" height="241"><g transform="translate(-419 -1302)"><path d="M550 1350c0 16.57-13.43 30-30 30s-30-13.43-30-30 13.43-30 30-30 30 13.43 30 30z" fill="#0c7cba"/><use xlink:href="#a" transform="matrix(1,0,0,1,510,1320) translate(0.6651475694444429 39.32725694444444)"/><path d="M600 1430c0 16.57-13.43 30-30 30s-30-13.43-30-30 13.43-30 30-30 30 13.43 30 30z" fill="#0c7cba"/><use xlink:href="#b" transform="matrix(1,0,0,1,560,1400) translate(0.6651475694444429 39.32725694444444)"/><path d="M500 1430c0 16.57-13.43 30-30 30s-30-13.43-30-30 13.43-30 30-30 30 13.43 30 30z" fill="#0c7cba"/><use xlink:href="#c" transform="matrix(1,0,0,1,460,1400) translate(0.6651475694444429 39.32725694444444)"/><path d="M505.64 1376.35l-20.14 28.06" stroke="#000" stroke-width="2" fill="none"/><path d="M506.57 1376.76l-.12.17-.8-.58zM497.6 1395.52l-12.1 8.9 4.55-14.3z"/><path d="M499.3 1395.5l-12.9 9.5-1.76-1.16 4.88-15.34zm-11.9 6.28l8.48-6.25-5.3-3.8z"/><path d="M535.9 1375.42l19.4 28.53" stroke="#000" stroke-width="2" fill="none"/><path d="M535.06 1375.98l-.06-.1.9-.46zm1.65-1.12zM555.3 1403.95l-11.85-9.2 7.66-5.2z"/><path d="M556.2 1403.47l-1.86 1-12.6-9.76 9.94-6.76zm-11.05-8.66l8.33 6.47-2.95-10.12z"/><path d="M458.72 1457.7L450 1500" stroke="#000" stroke-width="2" fill="none"/><path d="M458.72 1457.7l-.98-.2.04-.2zM457.42 1486.96L450 1500l-1.66-14.9z"/><path d="M458.97 1486.26l-7.82 13.74H449l-1.8-16.17zm-8.32 10.57l5.22-9.16-6.38-1.32z"/><path d="M479.26 1458.44L490 1500" stroke="#000" stroke-width="2" fill="none"/><path d="M480.23 1458.2l-.97.24.95-.32zM490 1500l-8.06-12.65 8.98-2.32z"/><path d="M491 1500h-2.2l-8.44-13.28 11.64-3zm-7.47-12.03l5.66 8.9.64-10.53z"/><path d="M440 1515c0 2.76 2.24 5 5 5h10c2.76 0 5-2.24 5-5v-10c0-2.76-2.24-5-5-5h-10c-2.76 0-5 2.24-5 5zM480 1515c0 2.76 2.24 5 5 5h10c2.76 0 5-2.24 5-5v-10c0-2.76-2.24-5-5-5h-10c-2.76 0-5 2.24-5 5z" stroke="#999" stroke-width=".5" fill="#999"/><path d="M560.3 1458.38L550 1500" stroke="#000" stroke-width="2" fill="none"/><path d="M560.18 1458.36l.1.02-.97-.24.05-.15zM557.92 1487.26L550 1500l-1.08-14.96z"/><path d="M559.5 1486.62l-8.32 13.38H549l-1.17-16.26zm-8.72 10.24l5.57-8.96-6.33-1.56z"/><path d="M578.55 1458.67L590 1500" stroke="#000" stroke-width="2" fill="none"/><path d="M579.52 1458.4l-.97.27.96-.32zM590 1500l-8.27-12.5 8.93-2.5z"/><path d="M591 1500h-2.2l-8.67-13.1 11.6-3.22zm-7.68-11.9l5.82 8.78.46-10.53z"/><path d="M540 1515c0 2.76 2.24 5 5 5h10c2.76 0 5-2.24 5-5v-10c0-2.76-2.24-5-5-5h-10c-2.76 0-5 2.24-5 5zM580 1515c0 2.76 2.24 5 5 5h10c2.76 0 5-2.24 5-5v-10c0-2.76-2.24-5-5-5h-10c-2.76 0-5 2.24-5 5z" stroke="#999" stroke-width=".5" fill="#999"/><defs><path fill="#c1e4f7" d="M937-319V0H757v-319H103v-140l635-890h199v888h188v142H937zm-180-835L257-461h500v-693" id="d"/><use transform="matrix(0.015190972222222224,0,0,0.015190972222222224,0,0)" xlink:href="#d" id="a"/><path fill="#c1e4f7" d="M141-911c0-296 172-459 469-459 157 0 276 55 356 166s121 278 121 501c-1 324-87 567-297 677-134 70-367 56-475-22-71-52-117-126-145-226l172-27c34 111 103 176 238 176 187 0 261-138 304-298 16-65 24-141 25-227-59 121-177 199-350 199-275 0-418-184-418-460zm461 318c168 0 289-96 289-269 0-158-59-275-163-332-36-20-77-30-124-30-187 0-280 125-280 313s90 318 278 318" id="e"/><use transform="matrix(0.015190972222222224,0,0,0.015190972222222224,0,0)" xlink:href="#e" id="b"/><path fill="#c1e4f7" d="M148-1120c216-7 379-89 463-229h166v1204h353V0H157v-145h439v-1021c-79 124-254 184-448 194v-148" id="f"/><use transform="matrix(0.015190972222222224,0,0,0.015190972222222224,0,0)" xlink:href="#f" id="c"/></defs></g></svg>